<svg width="900" height="560" viewBox="0 0 900 560" fill="none" xmlns="http://www.w3.org/2000/svg">
  <rect width="900" height="560" rx="24" fill="#0D1424"/>
  <rect x="54" y="58" width="792" height="444" rx="18" fill="#11192B"/>
  <rect x="96" y="104" width="190" height="116" rx="10" fill="#172238"/>
  <rect x="330" y="104" width="190" height="116" rx="10" fill="#172238"/>
  <rect x="564" y="104" width="190" height="116" rx="10" fill="#172238"/>
  <path d="M114 404C180 308 232 348 286 290C349 222 414 330 472 264C529 199 594 254 638 198C682 142 720 170 786 120" stroke="#39D0FF" stroke-width="10" stroke-linecap="round"/>
  <path d="M114 428H786" stroke="#EEF4FF" stroke-width="4" opacity=".18"/>
  <circle cx="191" cy="162" r="30" fill="#39D0FF"/>
  <circle cx="425" cy="162" r="30" fill="#8CF2C4"/>
  <circle cx="659" cy="162" r="30" fill="#F8C14A"/>
</svg>
