<svg width="900" height="560" viewBox="0 0 900 560" fill="none" xmlns="http://www.w3.org/2000/svg">
  <rect width="900" height="560" rx="24" fill="#0D1424"/>
  <g stroke="#39D0FF" stroke-width="5" opacity=".5">
    <path d="M190 170L354 114L508 188L690 126"/>
    <path d="M190 280L354 114L508 310L690 244"/>
    <path d="M190 390L354 280L508 188L690 390"/>
    <path d="M354 446L508 310L690 244"/>
    <path d="M354 280L508 310"/>
  </g>
  <g fill="#8CF2C4">
    <circle cx="190" cy="170" r="22"/>
    <circle cx="190" cy="280" r="22"/>
    <circle cx="190" cy="390" r="22"/>
    <circle cx="354" cy="114" r="22"/>
    <circle cx="354" cy="280" r="22"/>
    <circle cx="354" cy="446" r="22"/>
    <circle cx="508" cy="188" r="22"/>
    <circle cx="508" cy="310" r="22"/>
    <circle cx="690" cy="126" r="22"/>
    <circle cx="690" cy="244" r="22"/>
    <circle cx="690" cy="390" r="22"/>
  </g>
</svg>
