<svg width="64" height="64" viewBox="0 0 64 64" fill="none" xmlns="http://www.w3.org/2000/svg"><rect width="64" height="64" rx="14" fill="#172238"/><path d="M32 12C21 12 12 21 12 32C12 41 18 48 26 51C27 51 28 50 28 49V44C22 45 21 41 21 41C20 38 18 37 18 37C16 36 18 36 18 36C20 36 22 38 22 38C24 42 27 41 28 40C28 39 29 38 30 37C25 36 20 35 20 27C20 25 21 23 22 21C22 20 21 17 23 14C23 14 26 14 28 17C29 16 31 16 32 16C33 16 35 16 36 17C38 14 41 14 41 14C43 17 42 20 42 21C43 23 44 25 44 27C44 35 39 36 34 37C35 38 36 39 36 42V49C36 50 37 51 38 51C46 48 52 41 52 32C52 21 43 12 32 12Z" fill="#EEF4FF"/></svg>
