<svg width="64" height="64" viewBox="0 0 64 64" fill="none" xmlns="http://www.w3.org/2000/svg"><rect width="64" height="64" rx="14" fill="#172238"/><path d="M32 10C22 10 22 16 22 16V23H34V26H17C17 26 10 26 10 36C10 46 16 46 16 46H21V39C21 39 21 32 28 32H40C40 32 46 32 46 26V17C46 17 46 10 32 10Z" fill="#39D0FF"/><path d="M32 54C42 54 42 48 42 48V41H30V38H47C47 38 54 38 54 28C54 18 48 18 48 18H43V25C43 25 43 32 36 32H24C24 32 18 32 18 38V47C18 47 18 54 32 54Z" fill="#8CF2C4"/><circle cx="28" cy="17" r="2" fill="#0D1424"/><circle cx="36" cy="47" r="2" fill="#0D1424"/></svg>
